<svg width="390" height="390" viewBox="0 0 390 390" xmlns="http://www.w3.org/2000/svg">
<g clip-path="url(#clip0)">
<path d="M301.575 133.939C301.575 133.939 304.206 95.9476 292.365 104.294C280.523 112.641 285.622 136.282 285.622 136.282L301.575 133.939Z" fill="#a0a5aa"/>
<path d="M23.7142 350.619C23.7142 350.619 12.7774 387.828 30.2927 381.291C47.8081 374.754 45.6289 350.619 45.6289 350.619H23.7142V350.619Z" fill="#a0a5aa"/>
<path d="M168.277 151.331H192.371V173.245H168.277V151.331Z" fill="#a0a5aa"/>
<path d="M356.587 25.5162C356.587 25.5162 396.017 40.8524 382.86 95.413L205.487 132.623V123.865L356.587 25.5162V25.5162Z" fill="#a0a5aa"/>
<path d="M34.9782 368.183L31.2518 368.715Z" fill="#a0a5aa"/>
<path d="M150.418 329.8C150.418 329.8 136.572 352.321 150.418 364.6C164.265 376.879 122.769 493.558 122.769 493.558H157.385L206.929 383.528L214.978 329.723L150.418 329.8V329.8Z" fill="#a0a5aa"/>
<path d="M227.014 329.776L228.86 400.063L215.343 458.313H201.827L196.914 329.776H227.014Z" fill="#a0a5aa"/>
<path d="M193.44 165.598V172.176C193.44 172.176 208.776 240.058 221.892 283.847L228.594 292.769V215.964H292.118L303.055 130.567H285.54L265.598 180.893C265.598 180.893 213.135 156.799 193.44 165.598V165.598Z" fill="#a0a5aa"/>
<path d="M167.167 165.598C167.167 165.598 99.2851 145.903 24.8245 351.729H46.7392C46.7392 351.729 77.4115 261.932 125.558 250.995C125.558 250.995 160.589 294.783 103.643 382.566H149.652V353.209C149.611 346.496 149.573 339.779 149.77 333.075C149.901 328.634 150.135 324.2 150.542 319.776C150.759 317.42 150.981 315.063 151.209 312.707C154.194 281.975 158.315 251.276 166.098 221.31C171.373 203.16 171.742 183.936 167.167 165.598Z" fill="#a0a5aa"/>
<path d="M144.326 148.784C137.444 152.911 125.184 158.082 112.655 152.768L104.556 149.332L120.786 131.14C107.835 116.86 100.67 98.2665 100.69 78.9887C100.71 59.7109 107.913 41.1323 120.893 26.8793C133.873 12.6262 151.698 3.72168 170.89 1.90376C190.082 0.0858361 209.263 5.48493 224.688 17.0473C240.114 28.6097 250.677 45.5055 254.316 64.4367C257.955 83.368 254.409 102.976 244.369 119.433C234.33 135.891 218.518 148.016 200.02 153.443C181.522 158.87 161.665 157.209 144.326 148.784V148.784V148.784ZM113.23 78.9453C113.194 87.832 114.998 96.6298 118.527 104.786C122.056 112.941 127.235 120.279 133.738 126.336L138.215 130.543L128.002 141.991C132.437 140.955 136.62 139.041 140.304 136.362L143.528 134.069L146.995 135.974C159.493 142.827 173.897 145.384 187.99 143.251C202.083 141.119 215.086 134.415 224.997 124.171C234.909 113.927 241.18 100.71 242.846 86.5541C244.512 72.3979 241.481 58.0864 234.219 45.8211C226.957 33.5558 215.867 24.0162 202.654 18.6696C189.44 13.323 174.837 12.4656 161.089 16.2295C147.341 19.9934 135.21 28.17 126.563 39.5014C117.916 50.8329 113.231 64.6914 113.23 78.9453V78.9453V78.9453Z" fill="#a0a5aa"/>
<path opacity="0.1" d="M236.974 78.585C236.973 60.7594 230.297 43.5802 218.263 30.4304C206.228 17.2807 189.706 9.1135 171.95 7.53725C174.027 7.35526 176.129 7.25671 178.254 7.25671C197.169 7.26112 215.307 14.778 228.68 28.1542C242.053 41.5304 249.566 59.6705 249.566 78.585C249.566 97.4996 242.053 115.64 228.68 129.016C215.307 142.392 197.169 149.909 178.254 149.913C176.132 149.913 174.034 149.813 171.96 149.632C189.714 148.053 206.233 139.885 218.266 126.736C230.299 113.587 236.973 96.4089 236.974 78.585V78.585Z" fill="#a0a5aa"/>
<path d="M137.305 64.3663H188.273V69.0995H137.305V64.3663Z" fill="#a0a5aa"/>
<path d="M137.305 80.7395H226.138V85.4727H137.305V80.7395Z" fill="#a0a5aa"/>
<path d="M137.305 97.1128H226.051V101.846H137.305V97.1128Z" fill="#a0a5aa"/>
</g>
</svg>